<?xml version="1.0" encoding="UTF-8" ?>
<!DOCTYPE svg PUBLIC "-//W3C//DTD SVG 1.1//EN" "http://www.w3.org/Graphics/SVG/1.1/DTD/svg11.dtd">
<svg width="512pt" height="512pt" viewBox="0 0 512 512" version="1.1" xmlns="http://www.w3.org/2000/svg">
<g id="#2196f3ff">
<path fill="#2196f3" opacity="1.00" d=" M 192.28 0.00 L 192.49 0.00 C 195.05 0.49 197.59 1.15 200.04 2.09 C 218.68 9.27 237.35 16.41 256.00 23.56 C 274.63 16.41 293.27 9.28 311.88 2.10 C 314.33 1.16 316.87 0.49 319.44 0.00 L 319.68 0.00 C 322.77 0.20 325.93 0.75 328.60 2.44 C 332.18 4.75 334.67 8.29 337.32 11.54 C 348.95 25.92 360.59 40.28 372.22 54.65 C 392.76 57.96 413.32 61.11 433.85 64.50 C 440.75 65.53 446.51 71.16 447.50 78.10 C 450.88 98.63 454.07 119.20 457.36 139.75 C 473.31 152.76 489.36 165.66 505.31 178.67 C 509.52 181.92 511.92 187.00 512.00 192.29 L 512.00 192.49 C 511.52 195.07 510.87 197.63 509.93 200.09 C 502.75 218.73 495.63 237.38 488.47 256.02 C 495.61 274.65 502.74 293.27 509.91 311.88 C 510.84 314.34 511.51 316.89 512.00 319.47 L 512.00 319.71 C 511.76 323.02 511.12 326.44 509.16 329.21 C 506.81 332.47 503.49 334.81 500.42 337.32 C 486.06 348.95 471.70 360.56 457.36 372.21 C 454.27 391.81 451.10 411.39 448.03 430.98 C 447.42 434.85 446.49 438.90 443.85 441.93 C 440.99 445.47 436.52 447.17 432.14 447.83 C 412.18 450.99 392.22 454.18 372.25 457.33 C 359.25 473.32 346.31 489.38 333.32 505.39 C 330.31 509.31 325.64 511.79 320.69 512.00 L 319.36 512.00 C 315.33 511.48 311.61 509.78 307.85 508.35 C 290.57 501.72 273.29 495.09 256.00 488.47 C 237.33 495.62 218.66 502.76 200.00 509.94 C 197.59 510.85 195.08 511.50 192.55 512.00 L 192.32 512.00 C 189.02 511.79 185.63 511.14 182.88 509.20 C 179.57 506.83 177.20 503.47 174.65 500.36 C 163.02 486.01 151.41 471.66 139.75 457.33 C 119.79 454.18 99.83 450.99 79.87 447.83 C 75.48 447.16 71.00 445.46 68.16 441.89 C 65.54 438.89 64.62 434.89 64.02 431.06 C 60.94 411.44 57.79 391.83 54.70 372.21 C 38.71 359.22 22.65 346.32 6.68 333.31 C 2.49 330.07 0.07 325.00 0.00 319.72 L 0.00 319.54 C 0.48 316.94 1.14 314.37 2.08 311.89 C 9.26 293.29 16.38 274.66 23.53 256.04 C 16.81 238.50 10.10 220.96 3.35 203.43 C 1.92 199.90 0.64 196.29 0.00 192.53 L 0.00 192.32 C 0.07 187.02 2.51 181.96 6.69 178.71 C 22.66 165.68 38.73 152.79 54.71 139.78 C 57.78 120.18 60.95 100.59 64.01 80.99 C 64.60 77.15 65.54 73.14 68.18 70.14 C 71.02 66.57 75.48 64.85 79.88 64.20 C 99.84 61.04 119.80 57.85 139.76 54.70 C 152.77 38.72 165.69 22.66 178.73 6.69 C 181.96 2.50 187.00 0.08 192.28 0.00 M 72.81 177.77 C 67.21 180.56 63.72 186.76 64.04 192.99 C 64.02 235.00 64.02 277.02 64.03 319.03 C 63.90 323.52 65.45 328.12 68.73 331.27 C 73.06 335.78 80.16 337.18 85.92 334.84 C 91.86 332.54 96.05 326.43 95.96 320.04 C 96.06 304.04 95.96 288.03 96.00 272.03 C 102.81 271.74 109.74 272.71 116.46 271.34 C 123.50 269.43 128.58 262.22 127.92 254.94 C 127.58 247.22 120.84 240.43 113.11 240.13 C 107.41 239.87 101.70 240.11 96.01 240.02 C 96.00 229.36 96.00 218.69 96.01 208.03 C 102.40 207.84 108.84 208.46 115.20 207.64 C 124.02 206.12 130.03 196.28 127.38 187.73 C 125.59 181.00 119.01 175.94 112.03 176.07 C 102.66 175.95 93.29 176.08 83.93 176.01 C 80.17 176.00 76.22 175.94 72.81 177.77 M 171.85 176.61 C 164.67 178.40 159.63 185.63 160.01 192.96 C 159.98 233.31 160.02 273.66 159.99 314.01 C 160.04 318.20 159.62 322.63 161.45 326.54 C 164.04 332.51 170.57 336.47 177.08 335.92 C 184.79 335.58 191.62 328.83 191.90 321.09 C 192.19 308.31 191.83 295.52 192.08 282.73 C 203.50 298.03 214.98 313.28 226.42 328.56 C 228.57 331.48 231.42 334.00 234.92 335.11 C 242.57 337.77 252.00 333.57 254.80 325.89 C 257.06 320.53 255.82 314.19 252.25 309.71 C 242.26 296.33 232.22 283.00 222.23 269.62 C 233.35 265.88 243.31 258.40 249.25 248.18 C 255.97 237.17 257.60 223.34 254.02 211.00 C 250.13 196.77 239.17 184.79 225.45 179.45 C 213.55 174.70 200.52 176.32 188.03 176.03 C 182.65 176.22 177.16 175.51 171.85 176.61 M 288.04 191.92 C 287.97 234.63 287.98 277.35 288.04 320.06 C 287.84 328.56 295.47 336.15 303.96 335.96 C 314.65 336.03 325.34 336.03 336.03 335.96 C 341.91 336.01 347.57 332.51 350.21 327.28 C 354.45 319.56 350.70 308.90 342.60 305.49 C 335.42 302.71 327.50 304.51 320.00 304.00 C 320.00 293.34 320.00 282.69 320.00 272.03 C 325.71 271.94 331.42 272.21 337.12 271.91 C 343.74 271.57 349.74 266.60 351.42 260.20 C 354.03 251.57 347.82 241.75 338.94 240.35 C 332.66 239.66 326.31 240.19 320.01 240.02 C 319.99 229.36 320.00 218.69 320.01 208.03 C 326.04 207.91 332.09 208.30 338.11 207.81 C 346.22 206.95 352.72 199.01 351.91 190.88 C 351.53 182.81 344.14 175.91 336.06 176.07 C 325.34 175.99 314.63 176.00 303.92 176.07 C 295.46 175.90 287.88 183.46 288.04 191.92 M 384.86 186.96 C 383.68 190.50 384.06 194.31 383.99 197.99 C 384.01 236.64 384.00 275.30 383.99 313.96 C 384.05 318.18 383.59 322.67 385.45 326.61 C 387.96 332.22 393.89 336.04 400.05 335.97 C 410.36 336.05 420.67 335.98 430.99 336.00 C 435.98 336.18 441.06 334.15 444.24 330.23 C 450.27 323.43 448.64 311.73 440.98 306.83 C 433.57 302.03 424.28 304.69 416.00 304.00 C 416.00 293.34 415.99 282.68 416.01 272.03 C 424.72 271.31 434.91 274.32 442.27 268.23 C 449.75 262.31 449.76 249.72 442.26 243.81 C 434.92 237.68 424.71 240.79 416.01 240.02 C 415.99 229.36 416.00 218.70 416.00 208.03 C 422.03 207.91 428.08 208.30 434.09 207.81 C 442.23 206.97 448.68 199.01 447.90 190.87 C 447.49 182.79 440.14 175.89 432.03 176.07 C 421.35 175.99 410.67 176.00 400.00 176.07 C 393.30 175.98 386.90 180.59 384.86 186.96 Z" />
<path fill="#2196f3" opacity="1.00" d=" M 192.01 208.03 C 199.49 208.55 207.41 206.74 214.58 209.48 C 222.71 212.90 226.45 223.55 222.21 231.30 C 219.75 236.19 214.60 239.58 209.13 239.91 C 203.43 240.19 197.71 239.95 192.01 240.02 C 192.00 229.36 191.99 218.69 192.01 208.03 Z" />
</g>
<g id="#fafafaff">
<path fill="#fafafa" opacity="1.00" d=" M 72.81 177.77 C 76.22 175.94 80.17 176.00 83.93 176.01 C 93.29 176.08 102.66 175.95 112.03 176.07 C 119.01 175.94 125.59 181.00 127.38 187.73 C 130.03 196.28 124.02 206.12 115.20 207.64 C 108.84 208.46 102.40 207.84 96.01 208.03 C 96.00 218.69 96.00 229.36 96.01 240.02 C 101.70 240.11 107.41 239.87 113.11 240.13 C 120.84 240.43 127.58 247.22 127.92 254.94 C 128.58 262.22 123.50 269.43 116.46 271.34 C 109.74 272.71 102.81 271.74 96.00 272.03 C 95.96 288.03 96.06 304.04 95.96 320.04 C 96.05 326.43 91.86 332.54 85.92 334.84 C 80.16 337.18 73.06 335.78 68.73 331.27 C 65.45 328.12 63.90 323.52 64.03 319.03 C 64.02 277.02 64.02 235.00 64.04 192.99 C 63.72 186.76 67.21 180.56 72.81 177.77 Z" />
<path fill="#fafafa" opacity="1.00" d=" M 171.85 176.61 C 177.16 175.51 182.65 176.22 188.03 176.03 C 200.52 176.32 213.55 174.70 225.45 179.45 C 239.17 184.79 250.13 196.77 254.02 211.00 C 257.60 223.34 255.97 237.17 249.25 248.18 C 243.31 258.40 233.35 265.88 222.23 269.62 C 232.22 283.00 242.26 296.33 252.25 309.71 C 255.82 314.19 257.06 320.53 254.80 325.89 C 252.00 333.57 242.57 337.77 234.92 335.11 C 231.42 334.00 228.57 331.48 226.42 328.56 C 214.98 313.28 203.50 298.03 192.08 282.73 C 191.83 295.52 192.19 308.31 191.90 321.09 C 191.62 328.83 184.79 335.58 177.08 335.92 C 170.57 336.47 164.04 332.51 161.45 326.54 C 159.62 322.63 160.04 318.20 159.99 314.01 C 160.02 273.66 159.98 233.31 160.01 192.96 C 159.63 185.63 164.67 178.40 171.85 176.61 M 192.01 208.03 C 191.99 218.69 192.00 229.36 192.01 240.02 C 197.71 239.95 203.43 240.19 209.13 239.91 C 214.60 239.58 219.75 236.19 222.21 231.30 C 226.45 223.55 222.71 212.90 214.58 209.48 C 207.41 206.74 199.49 208.55 192.01 208.03 Z" />
<path fill="#fafafa" opacity="1.00" d=" M 288.04 191.92 C 287.88 183.46 295.46 175.90 303.92 176.07 C 314.63 176.00 325.34 175.99 336.06 176.07 C 344.14 175.91 351.53 182.81 351.91 190.88 C 352.72 199.01 346.22 206.95 338.11 207.81 C 332.09 208.30 326.04 207.91 320.01 208.03 C 320.00 218.69 319.99 229.36 320.01 240.02 C 326.31 240.19 332.66 239.66 338.94 240.35 C 347.82 241.75 354.03 251.57 351.42 260.20 C 349.74 266.60 343.74 271.57 337.12 271.91 C 331.42 272.21 325.71 271.94 320.00 272.03 C 320.00 282.69 320.00 293.34 320.00 304.00 C 327.50 304.51 335.42 302.71 342.60 305.49 C 350.70 308.90 354.45 319.56 350.21 327.28 C 347.57 332.51 341.91 336.01 336.03 335.96 C 325.34 336.03 314.65 336.03 303.96 335.96 C 295.47 336.15 287.84 328.56 288.04 320.06 C 287.98 277.35 287.97 234.63 288.04 191.92 Z" />
<path fill="#fafafa" opacity="1.00" d=" M 384.86 186.96 C 386.90 180.59 393.30 175.98 400.00 176.07 C 410.67 176.00 421.35 175.99 432.03 176.07 C 440.14 175.89 447.49 182.79 447.90 190.87 C 448.68 199.01 442.23 206.97 434.09 207.81 C 428.08 208.30 422.03 207.91 416.00 208.03 C 416.00 218.70 415.99 229.36 416.01 240.02 C 424.71 240.79 434.92 237.68 442.26 243.81 C 449.76 249.72 449.75 262.31 442.27 268.23 C 434.91 274.32 424.72 271.31 416.01 272.03 C 415.99 282.68 416.00 293.34 416.00 304.00 C 424.28 304.69 433.57 302.03 440.98 306.83 C 448.64 311.73 450.27 323.43 444.24 330.23 C 441.06 334.15 435.98 336.18 430.99 336.00 C 420.67 335.98 410.36 336.05 400.05 335.97 C 393.89 336.04 387.96 332.22 385.45 326.61 C 383.59 322.67 384.05 318.18 383.99 313.96 C 384.00 275.30 384.01 236.64 383.99 197.99 C 384.06 194.31 383.68 190.50 384.86 186.96 Z" />
</g>
</svg>
